<svg xmlns="http://www.w3.org/2000/svg" width="512" height="512" version="1.1" viewBox="0 0 512 512"><title>icon</title><defs><linearGradient id="linearGradient-1" x1="-1118.346%" x2="316.775%" y1="210.622%" y2="13.233%"><stop offset="0%" stop-color="#40B8EA"/><stop offset="50.45%" stop-color="#6A71B1"/><stop offset="100%" stop-color="#C93593"/></linearGradient><linearGradient id="linearGradient-2" x1="-1686.543%" x2="566.732%" y1="289.751%" y2="-21.274%"><stop offset="0%" stop-color="#40B8EA"/><stop offset="50.45%" stop-color="#6A71B1"/><stop offset="100%" stop-color="#C93593"/></linearGradient><linearGradient id="linearGradient-3" x1="-2010.39%" x2="232.405%" y1="331.607%" y2="25.126%"><stop offset="0%" stop-color="#40B8EA"/><stop offset="50.45%" stop-color="#6A71B1"/><stop offset="100%" stop-color="#C93593"/></linearGradient><linearGradient id="linearGradient-4" x1="-1666.572%" x2="586.704%" y1="286.854%" y2="-24.17%"><stop offset="0%" stop-color="#40B8EA"/><stop offset="50.45%" stop-color="#6A71B1"/><stop offset="100%" stop-color="#C93593"/></linearGradient><linearGradient id="linearGradient-5" x1="-1029.824%" x2="422.589%" y1="198.676%" y2="-1.414%"><stop offset="0%" stop-color="#40B8EA"/><stop offset="50.45%" stop-color="#6A71B1"/><stop offset="100%" stop-color="#C93593"/></linearGradient><linearGradient id="linearGradient-6" x1="-1331.591%" x2="911.204%" y1="238.816%" y2="-67.666%"><stop offset="0%" stop-color="#40B8EA"/><stop offset="50.45%" stop-color="#6A71B1"/><stop offset="100%" stop-color="#C93593"/></linearGradient><linearGradient id="linearGradient-7" x1="-676.886%" x2="1576.389%" y1="149.721%" y2="-159.632%"><stop offset="0%" stop-color="#40B8EA"/><stop offset="50.45%" stop-color="#6A71B1"/><stop offset="100%" stop-color="#C93593"/></linearGradient><linearGradient id="linearGradient-8" x1="-318.791%" x2="1183.393%" y1="100.754%" y2="-105.853%"><stop offset="0%" stop-color="#40B8EA"/><stop offset="50.45%" stop-color="#6A71B1"/><stop offset="100%" stop-color="#C93593"/></linearGradient><linearGradient id="linearGradient-9" x1="-799.459%" x2="205.126%" y1="166.678%" y2="28.743%"><stop offset="0%" stop-color="#40B8EA"/><stop offset="50.45%" stop-color="#6A71B1"/><stop offset="100%" stop-color="#C93593"/></linearGradient><linearGradient id="linearGradient-10" x1="-719.22%" x2="797.135%" y1="155.553%" y2="-52.698%"><stop offset="0%" stop-color="#40B8EA"/><stop offset="50.45%" stop-color="#6A71B1"/><stop offset="100%" stop-color="#C93593"/></linearGradient><linearGradient id="linearGradient-11" x1="-235.365%" x2="1843.088%" y1="89.362%" y2="-196.614%"><stop offset="0%" stop-color="#40B8EA"/><stop offset="50.45%" stop-color="#6A71B1"/><stop offset="100%" stop-color="#C93593"/></linearGradient><linearGradient id="linearGradient-12" x1="-166.963%" x2="1136.282%" y1="79.992%" y2="-99.568%"><stop offset="0%" stop-color="#40B8EA"/><stop offset="50.45%" stop-color="#6A71B1"/><stop offset="100%" stop-color="#C93593"/></linearGradient><linearGradient id="linearGradient-13" x1="-431.57%" x2="2217.885%" y1="115.767%" y2="-247.2%"><stop offset="0%" stop-color="#40B8EA"/><stop offset="50.45%" stop-color="#6A71B1"/><stop offset="100%" stop-color="#C93593"/></linearGradient><linearGradient id="linearGradient-14" x1="-215.991%" x2="1674.993%" y1="86.435%" y2="-172.656%"><stop offset="0%" stop-color="#40B8EA"/><stop offset="50.45%" stop-color="#6A71B1"/><stop offset="100%" stop-color="#C93593"/></linearGradient><linearGradient id="linearGradient-15" x1="5.323%" x2="99.356%" y1="54.017%" y2="43.009%"><stop offset="0%" stop-color="#40B8EA"/><stop offset="50.45%" stop-color="#6A71B1"/><stop offset="100%" stop-color="#C93593"/></linearGradient><linearGradient id="linearGradient-16" x1="-153.649%" x2="1085.942%" y1="77.857%" y2="-92.183%"><stop offset="0%" stop-color="#40B8EA"/><stop offset="50.45%" stop-color="#6A71B1"/><stop offset="100%" stop-color="#C93593"/></linearGradient><linearGradient id="linearGradient-17" x1="-519.196%" x2="753.102%" y1="128.164%" y2="-46.701%"><stop offset="0%" stop-color="#40B8EA"/><stop offset="50.45%" stop-color="#6A71B1"/><stop offset="100%" stop-color="#C93593"/></linearGradient><linearGradient id="linearGradient-18" x1="-748.848%" x2="497.149%" y1="159.848%" y2="-11.442%"><stop offset="0%" stop-color="#40B8EA"/><stop offset="50.45%" stop-color="#6A71B1"/><stop offset="100%" stop-color="#C93593"/></linearGradient><linearGradient id="linearGradient-19" x1="-1229.408%" x2="805.195%" y1="225.886%" y2="-53.604%"><stop offset="0%" stop-color="#40B8EA"/><stop offset="50.45%" stop-color="#6A71B1"/><stop offset="100%" stop-color="#C93593"/></linearGradient><linearGradient id="linearGradient-20" x1="-881.115%" x2="1144.939%" y1="177.472%" y2="-99.674%"><stop offset="0%" stop-color="#40B8EA"/><stop offset="50.45%" stop-color="#6A71B1"/><stop offset="100%" stop-color="#C93593"/></linearGradient><linearGradient id="linearGradient-21" x1="-365.717%" x2="1199.871%" y1="107.18%" y2="-108.356%"><stop offset="0%" stop-color="#40B8EA"/><stop offset="50.45%" stop-color="#6A71B1"/><stop offset="100%" stop-color="#C93593"/></linearGradient><linearGradient id="linearGradient-22" x1="-609.695%" x2="604.917%" y1="140.766%" y2="-26.376%"><stop offset="0%" stop-color="#40B8EA"/><stop offset="50.45%" stop-color="#6A71B1"/><stop offset="100%" stop-color="#C93593"/></linearGradient><linearGradient id="linearGradient-23" x1="-1061.179%" x2="724.75%" y1="202.335%" y2="-42.424%"><stop offset="0%" stop-color="#40B8EA"/><stop offset="50.45%" stop-color="#6A71B1"/><stop offset="100%" stop-color="#C93593"/></linearGradient><linearGradient id="linearGradient-24" x1="-883.44%" x2="1100.926%" y1="178.187%" y2="-94.156%"><stop offset="0%" stop-color="#40B8EA"/><stop offset="50.45%" stop-color="#6A71B1"/><stop offset="100%" stop-color="#C93593"/></linearGradient><linearGradient id="linearGradient-25" x1="-177.934%" x2="1662.527%" y1="81.174%" y2="-170.95%"><stop offset="0%" stop-color="#40B8EA"/><stop offset="50.45%" stop-color="#6A71B1"/><stop offset="100%" stop-color="#C93593"/></linearGradient><linearGradient id="linearGradient-26" x1="-757.771%" x2="1294.148%" y1="160.725%" y2="-120.77%"><stop offset="0%" stop-color="#40B8EA"/><stop offset="50.45%" stop-color="#6A71B1"/><stop offset="100%" stop-color="#C93593"/></linearGradient><linearGradient id="linearGradient-27" x1="-78.403%" x2="1170.822%" y1="67.665%" y2="-104.514%"><stop offset="0%" stop-color="#40B8EA"/><stop offset="50.45%" stop-color="#6A71B1"/><stop offset="100%" stop-color="#C93593"/></linearGradient></defs><g id="Page-1" fill="none" fill-rule="evenodd" stroke="none" stroke-width="1"><g id="logo" fill-rule="nonzero" transform="translate(4.000000, 53.000000)"><g id="Layer_1"><polygon id="Path" fill="url(#linearGradient-1)" points="425.299 214.935 433.519 200.652 425.299 186.467 408.859 186.467 400.639 200.652 408.859 214.935"/><polygon id="Path" fill="url(#linearGradient-2)" points="398.192 189.891 403.379 180.792 398.192 171.694 387.721 171.694 382.437 180.792 387.721 189.891"/><polygon id="Path" fill="url(#linearGradient-3)" points="457.202 110.941 462.486 101.94 457.202 92.842 446.731 92.842 441.446 101.94 446.731 110.941"/><polygon id="Path" fill="url(#linearGradient-4)" points="364.039 92.059 369.225 101.158 379.794 101.158 384.981 92.059 379.794 82.961 369.225 82.961"/><polygon id="Path" fill="url(#linearGradient-5)" points="383.709 140.584 367.464 140.584 359.342 154.671 367.464 168.759 383.709 168.759 391.831 154.671"/><polygon id="Path" fill="url(#linearGradient-6)" points="313.152 216.012 318.436 225.012 328.907 225.012 334.192 216.012 328.907 206.913 318.436 206.913"/><polygon id="Path" fill="url(#linearGradient-7)" points="174.191 102.723 169.004 93.722 158.533 93.722 153.249 102.723 158.533 111.821 169.004 111.821"/><polygon id="Path" fill="url(#linearGradient-8)" points="147.866 138.823 139.94 125.224 124.282 125.224 116.453 138.823 124.282 152.421 139.94 152.421"/><polygon id="Path" fill="url(#linearGradient-9)" points="424.712 99.299 436.455 79.048 424.712 58.699 401.226 58.699 389.482 79.048 401.226 99.299"/><polygon id="Path" fill="url(#linearGradient-10)" points="272.148 257.981 264.32 271.384 272.148 284.885 287.61 284.885 295.439 271.384 287.61 257.981"/><polygon id="Path" fill="url(#linearGradient-11)" points="102.166 233.915 90.814 233.915 85.138 243.796 90.814 253.579 102.166 253.579 107.842 243.796"/><polygon id="Path" fill="url(#linearGradient-12)" points="105.787 327.344 114.79 342.997 132.992 342.997 141.995 327.344 132.992 311.593 114.79 311.593"/><polygon id="Path" fill="url(#linearGradient-13)" points="135.34 296.82 130.839 289.189 122.031 289.189 117.53 296.82 122.031 304.549 130.839 304.549"/><polygon id="Path" fill="url(#linearGradient-14)" points="115.964 384.379 109.701 395.141 115.964 405.902 128.392 405.902 134.655 395.141 128.392 384.379"/><path id="Shape" fill="url(#linearGradient-15)" d="M483.036576,191.94506 L502.314981,158.584578 L483.036576,125.224096 L444.479767,125.224096 L436.259533,139.409639 L424.124903,131.876627 L429.213619,123.071807 L416.883268,101.646747 L392.222568,101.646747 L382.925875,117.788916 L368.638327,116.321446 L369.127626,115.440964 L352.1,85.8959036 L345.347665,85.8959036 L350.142802,68.1884337 L365.996109,68.1884337 L378.326459,46.7633735 L365.996109,25.4361446 L341.335409,25.4361446 L329.005058,46.8612048 L341.335409,68.2862651 L346.228405,68.2862651 L341.433268,85.9937349 L317.946887,85.9937349 L304.540078,109.179759 L288.88249,105.56 L291.916148,100.277108 L275.671401,72.1995181 L260.796693,72.1995181 L260.111673,56.3508434 L268.429767,56.3508434 L280.760117,34.9257831 L268.429767,13.5007229 L243.769066,13.5007229 L231.438716,34.9257831 L243.769066,56.3508434 L256.392996,56.3508434 L257.078016,72.1995181 L243.279767,72.1995181 L227.035019,100.277108 L236.527432,116.712771 L214.508949,133.735422 L209.224514,124.637108 L185.542412,124.637108 L178.594358,82.0804819 L187.793191,82.0804819 L202.765759,56.253012 L187.988911,30.3277108 L158.141634,30.3277108 L143.169066,56.1551807 L158.141634,81.9826506 L175.071401,81.9826506 L182.019455,124.539277 L169.004086,124.539277 L163.52393,134.126747 L126.630739,100.081446 L136.123152,83.6457831 L120.269844,56.1551807 L88.4653696,56.1551807 L72.6120623,83.6457831 L88.4653696,111.136386 L120.269844,111.136386 L124.771401,103.30988 L161.664591,137.355181 L148.747082,159.562892 L149.334241,160.541205 L68.6976654,164.943614 L53.3336576,138.333494 L18.1040856,138.333494 L0.489299611,168.856867 L18.1040856,199.380241 L53.3336576,199.380241 L70.9484436,168.856867 L70.7527237,168.465542 L151.3893,164.063133 L160.294553,179.520482 L146.007004,190.281928 L140.722568,181.183614 L112.73463,181.183614 L98.7406615,205.445783 L103.731518,214.05494 L73.0035019,226.283855 L65.9575875,214.152771 L39.7311284,214.152771 L26.6178988,236.751807 L39.7311284,259.448675 L65.9575875,259.448675 L79.0708171,236.751807 L74.8628405,229.512289 L105.590856,217.283373 L112.73463,229.707952 L140.722568,229.707952 L154.716537,205.445783 L147.768482,193.510361 L162.056031,182.748916 L168.906226,194.586506 L186.129572,194.586506 L185.542412,218.457349 L169.689105,218.457349 L152.759339,247.708916 L156.380156,253.97012 L148.062062,256.415904 L140.526848,243.306506 L117.725486,243.306506 L106.373735,263.068434 L117.725486,282.830361 L140.526848,282.830361 L151.878599,263.068434 L149.921401,259.742169 L158.239494,257.296386 L169.689105,277.058313 L179.964397,277.058313 L177.811479,289.482892 L160.000973,289.482892 L144.441245,316.484337 L158.239494,340.257349 L153.444358,347.888193 L134.948833,347.888193 L124.673541,365.595663 L134.948833,383.303133 L155.401556,383.303133 L165.676848,365.595663 L156.575875,349.844819 L160.685992,343.387952 L191.316148,343.387952 L206.875875,316.386506 L191.316148,289.38506 L181.725875,289.38506 L183.878794,276.960482 L203.548638,276.960482 L209.909533,265.905542 L219.304086,273.14506 L213.43249,283.319518 L223.805642,301.222651 L244.454086,301.222651 L254.827237,283.319518 L244.454086,265.416386 L223.805642,265.416386 L221.163424,269.916627 L211.768872,262.677108 L220.380545,247.708916 L203.548638,218.359518 L189.261089,218.359518 L189.848249,194.488675 L209.420233,194.488675 L218.227626,179.129157 L234.178794,190.575422 L222.827043,210.337349 L242.007588,243.6 L280.466537,243.6 L288.295331,230.001446 L308.845914,243.306506 L301.89786,255.339759 L314.61965,277.351807 L339.96537,277.351807 L352.68716,255.339759 L339.96537,233.327711 L314.61965,233.327711 L310.705253,240.078072 L290.154669,226.773012 L299.647082,210.337349 L297.396304,206.326265 L334.485214,200.945542 L343.096887,215.815904 L365.996109,215.815904 L367.757588,212.685301 L382.338716,232.251566 L370.497665,252.698313 L385.763813,279.112771 L416.296109,279.112771 L431.562257,252.698313 L425.690661,242.523855 L439.97821,234.306024 L445.458366,243.795663 L468.455447,243.795663 L480.002918,223.838072 L468.455447,203.880482 L445.458366,203.880482 L433.910895,223.838072 L438.118872,231.07759 L423.831323,239.295422 L416.296109,226.283855 L385.763813,226.283855 L384.295914,228.82747 L369.714786,209.261205 L377.44572,195.956145 L365.996109,176.096386 L342.999027,176.096386 L331.549416,195.956145 L332.430156,197.521446 L295.341245,202.902169 L283.304475,182.064096 L315.598249,140.877108 L317.946887,144.986024 L352.00214,144.986024 L366.485409,119.843373 L380.772957,121.310843 L379.794358,123.071807 L392.124708,144.496867 L416.883268,144.496867 L422.265564,135.10506 L434.400195,142.638072 L425.201362,158.584578 L444.479767,191.94506 L483.036576,191.94506 Z M281.347276,178.64 L280.466537,177.074699 L242.007588,177.074699 L236.038132,187.444819 L220.086965,175.998554 L229.579377,159.562892 L216.466148,136.866024 L238.48463,119.843373 L243.279767,128.256867 L275.671401,128.256867 L286.827432,108.886265 L302.485019,112.506024 L300.821401,115.440964 L313.543191,137.453012 L281.347276,178.64 Z"/><polygon id="Path" fill="url(#linearGradient-16)" points="102.557 156.237 112.05 139.801 102.557 123.365 83.475 123.365 73.982 139.801 83.475 156.237"/><polygon id="Path" fill="url(#linearGradient-17)" points="219.598 32.382 228.894 16.338 219.598 .293 201.102 .293 191.805 16.338 201.102 32.382"/><polygon id="Path" fill="url(#linearGradient-18)" points="313.935 35.219 323.427 18.881 313.935 2.446 294.95 2.446 285.555 18.881 294.95 35.219"/><polygon id="Path" fill="url(#linearGradient-19)" points="299.549 51.166 293.678 61.242 299.549 71.221 311.097 71.221 316.87 61.242 311.097 51.166"/><polygon id="Path" fill="url(#linearGradient-20)" points="212.552 66.33 218.423 76.308 229.971 76.308 235.842 66.33 229.971 56.253 218.423 56.253"/><polygon id="Path" fill="url(#linearGradient-21)" points="133.481 51.851 141.016 38.741 133.481 25.73 118.411 25.73 110.875 38.741 118.411 51.851"/><polygon id="Path" fill="url(#linearGradient-22)" points="267.843 130.996 258.154 147.823 267.843 164.65 287.219 164.65 297.005 147.823 287.219 130.996"/><polygon id="Path" fill="url(#linearGradient-23)" points="306.497 172.281 313.152 183.629 326.265 183.629 332.919 172.281 326.265 160.835 313.152 160.835"/><polygon id="Path" fill="url(#linearGradient-24)" points="236.723 139.116 230.754 149.388 236.723 159.661 248.564 159.661 254.534 149.388 248.564 139.116"/><polygon id="Path" fill="url(#linearGradient-25)" points="94.826 193.608 88.368 182.553 75.646 182.553 69.187 193.608 75.646 204.663 88.368 204.663"/><polygon id="Path" fill="url(#linearGradient-26)" points="187.01 105.267 192.784 115.245 204.234 115.245 210.007 105.267 204.234 95.386 192.784 95.386"/><polygon id="Path" fill="url(#linearGradient-27)" points="68.796 131.877 78.288 115.441 68.796 99.103 49.909 99.103 40.514 115.441 49.909 131.877"/></g></g></g></svg>